<svg width="20" height="20" viewBox="0 0 20 20" fill="none" xmlns="http://www.w3.org/2000/svg">
<path d="M16.875 5.3125C16.875 7.21098 13.797 8.75 10 8.75C6.20304 8.75 3.125 7.21098 3.125 5.3125M16.875 5.3125C16.875 3.41402 13.797 1.875 10 1.875C6.20304 1.875 3.125 3.41402 3.125 5.3125M16.875 5.3125V14.6875C16.875 16.586 13.797 18.125 10 18.125C6.20304 18.125 3.125 16.586 3.125 14.6875V5.3125M16.875 5.3125V8.4375M3.125 5.3125V8.4375M16.875 8.4375V11.5625C16.875 13.461 13.797 15 10 15C6.20304 15 3.125 13.461 3.125 11.5625V8.4375M16.875 8.4375C16.875 10.336 13.797 11.875 10 11.875C6.20304 11.875 3.125 10.336 3.125 8.4375" stroke="#171717" stroke-width="1.5" stroke-linecap="round" stroke-linejoin="round"/>
</svg>
