<svg width="48" height="48" viewBox="0 0 48 48" fill="none" xmlns="http://www.w3.org/2000/svg">
<path d="M0 8C0 3.58172 3.58172 0 8 0H40C44.4183 0 48 3.58172 48 8V40C48 44.4183 44.4183 48 40 48H8C3.58172 48 0 44.4183 0 40V8Z" fill="#E5E7EB"/>
<path d="M15.875 27.125L20.1742 22.8258C20.9064 22.0936 22.0936 22.0936 22.8258 22.8258L27.125 27.125M25.875 25.875L27.0492 24.7008C27.7814 23.9686 28.9686 23.9686 29.7008 24.7008L32.125 27.125M17.125 30.25H30.875C31.5654 30.25 32.125 29.6904 32.125 29V19C32.125 18.3096 31.5654 17.75 30.875 17.75H17.125C16.4346 17.75 15.875 18.3096 15.875 19V29C15.875 29.6904 16.4346 30.25 17.125 30.25ZM25.875 20.875H25.8813V20.8813H25.875V20.875ZM26.1875 20.875C26.1875 21.0476 26.0476 21.1875 25.875 21.1875C25.7024 21.1875 25.5625 21.0476 25.5625 20.875C25.5625 20.7024 25.7024 20.5625 25.875 20.5625C26.0476 20.5625 26.1875 20.7024 26.1875 20.875Z" stroke="#9CA3AF" stroke-width="1.5" stroke-linecap="round" stroke-linejoin="round"/>
</svg>
