<svg width="20" height="20" viewBox="0 0 20 20" fill="none" xmlns="http://www.w3.org/2000/svg">
<path d="M7.99461 3.2835C8.06995 2.83145 8.46106 2.50012 8.91935 2.50012H11.081C11.5393 2.50012 11.9304 2.83145 12.0057 3.2835L12.1837 4.35104C12.2356 4.66274 12.4439 4.92238 12.7204 5.07542C12.7822 5.10964 12.8433 5.14498 12.9037 5.18143C13.1745 5.34499 13.504 5.39584 13.8003 5.28484L14.8143 4.90494C15.2435 4.74416 15.726 4.91721 15.9551 5.3141L17.0359 7.18613C17.2651 7.58302 17.1737 8.0874 16.8199 8.37867L15.9829 9.06769C15.7392 9.26835 15.6183 9.57822 15.6242 9.8939C15.6248 9.92923 15.6252 9.96464 15.6252 10.0001C15.6252 10.0356 15.6248 10.071 15.6242 10.1063C15.6183 10.422 15.7392 10.7319 15.9829 10.9325L16.8199 11.6216C17.1737 11.9128 17.2651 12.4172 17.0359 12.8141L15.9551 14.6861C15.726 15.083 15.2435 15.2561 14.8143 15.0953L13.8003 14.7154C13.504 14.6044 13.1745 14.6552 12.9037 14.8188C12.8433 14.8553 12.7822 14.8906 12.7204 14.9248C12.4439 15.0779 12.2356 15.3375 12.1837 15.6492L12.0057 16.7167C11.9304 17.1688 11.5393 17.5001 11.081 17.5001H8.91935C8.46106 17.5001 8.06995 17.1688 7.99461 16.7167L7.81668 15.6492C7.76473 15.3375 7.55642 15.0779 7.27995 14.9248C7.21814 14.8906 7.15704 14.8553 7.09668 14.8188C6.82581 14.6553 6.49637 14.6044 6.20007 14.7154L5.18601 15.0953C4.75685 15.2561 4.27436 15.083 4.04522 14.6861L2.9644 12.8141C2.73526 12.4172 2.82663 11.9128 3.18045 11.6216L4.01741 10.9326C4.26117 10.7319 4.382 10.422 4.37615 10.1063C4.3755 10.071 4.37517 10.0356 4.37517 10.0001C4.37517 9.96464 4.3755 9.92923 4.37615 9.89391C4.382 9.57823 4.26117 9.26837 4.01741 9.0677L3.18045 8.37868C2.82663 8.08741 2.73525 7.58303 2.9644 7.18614L4.04522 5.31411C4.27436 4.91722 4.75685 4.74417 5.18601 4.90495L6.20006 5.28484C6.49636 5.39585 6.8258 5.345 7.09667 5.18144C7.15703 5.14499 7.21813 5.10964 7.27995 5.07542C7.55642 4.92238 7.76473 4.66274 7.81668 4.35104L7.99461 3.2835Z" stroke="#171717" stroke-width="1.5" stroke-linecap="round" stroke-linejoin="round"/>
<path d="M12.5 10.0001C12.5 11.3808 11.3807 12.5001 9.99998 12.5001C8.61926 12.5001 7.49998 11.3808 7.49998 10.0001C7.49998 8.61934 8.61926 7.50006 9.99998 7.50006C11.3807 7.50006 12.5 8.61934 12.5 10.0001Z" stroke="#171717" stroke-width="1.5" stroke-linecap="round" stroke-linejoin="round"/>
</svg>
