<svg width="20" height="20" viewBox="0 0 20 20" fill="none" xmlns="http://www.w3.org/2000/svg">
<path d="M13.125 8.75V5C13.125 3.27411 11.7259 1.875 10 1.875C8.27411 1.875 6.875 3.27411 6.875 5V8.75M16.3384 7.08936L17.391 17.0894C17.4493 17.6429 17.0152 18.125 16.4586 18.125H3.54136C2.98476 18.125 2.55074 17.6429 2.60901 17.0894L3.66164 7.08936C3.71187 6.61222 4.11422 6.25 4.59399 6.25H15.406C15.8858 6.25 16.2881 6.61222 16.3384 7.08936ZM7.1875 8.75C7.1875 8.92259 7.04759 9.0625 6.875 9.0625C6.70241 9.0625 6.5625 8.92259 6.5625 8.75C6.5625 8.57741 6.70241 8.4375 6.875 8.4375C7.04759 8.4375 7.1875 8.57741 7.1875 8.75ZM13.4375 8.75C13.4375 8.92259 13.2976 9.0625 13.125 9.0625C12.9524 9.0625 12.8125 8.92259 12.8125 8.75C12.8125 8.57741 12.9524 8.4375 13.125 8.4375C13.2976 8.4375 13.4375 8.57741 13.4375 8.75Z" stroke="white" stroke-width="1.5" stroke-linecap="round" stroke-linejoin="round"/>
</svg>
